# xmcd
# 
# Track frame offsets:
#     150
#     19653
#     43694
#     61317
#     79867
#     95807
#     114097
#     130422
#     146748
#     156674
#     174908
#     195927
#     206294
# 
# Disc length: 2913
# 
# Revision: 278261202
# Processed by: cddbd v1.5.2PL0 Copyright (c) Steve Scherf et al.
# Submitted via: fre:ac v1.1beta1pre5
# 
DISCID=ad0b5f0d
DTITLE=Rosanne Cash - She Remembers Everything
DYEAR=2018
DGENRE=Country
TTITLE0=The Only Thing Worth Fighting For
TTITLE1=The Undiscovered Country
TTITLE2=8 Gods Of Harlem
TTITLE3=Rabbit Hole
TTITLE4=Crossing To Jerusalem
TTITLE5=Not Many Miles To Go
TTITLE6=Everyone But Me
TTITLE7=She Remembers Everything
TTITLE8=Particle And Wave
TTITLE9=My Least Favorite Life
TTITLE10=Nothing But The Truth
TTITLE11=Every Day Feels Like A New Goodbye
TTITLE12=The Parting Glass
EXTD=
EXTT0=
EXTT1=
EXTT2=
EXTT3=
EXTT4=
EXTT5=
EXTT6=
EXTT7=
EXTT8=
EXTT9=
EXTT10=
EXTT11=
EXTT12=
PLAYORDER=
